<?xml version="1.0" encoding="UTF-8"?>
<svg version="1.1" xmlns="http://www.w3.org/2000/svg" width="32" height="32">
<path d="M0 0 C9.9 0 19.8 0 30 0 C30 9.9 30 19.8 30 30 C20.1 30 10.2 30 0 30 C0 20.1 0 10.2 0 0 Z M2 2 C2 10.58 2 19.16 2 28 C10.58 28 19.16 28 28 28 C28 19.42 28 10.84 28 2 C23.71 2 19.42 2 15 2 C15 2.33 15 2.66 15 3 C16.8871875 3.37125 16.8871875 3.37125 18.8125 3.75 C21.51919183 4.28246397 22.74934588 4.75441528 24.73828125 6.703125 C26.34201708 9.62261932 26.39988883 11.6814896 26.375 15 C26.38273437 16.03125 26.39046875 17.0625 26.3984375 18.125 C25.95236814 21.34369654 25.26449533 22.70361037 23 25 C17.69659939 26.7678002 12.06424747 26.92680499 6.9375 24.625 C4.45364272 22.54176486 4.06000602 21.58034393 3.7265625 18.35546875 C3.45222308 9.79818922 3.45222308 9.79818922 6.1875 5.8125 C8.93378755 4.04267024 10.76812607 3.27701777 14 3 C14 2.67 14 2.34 14 2 C10.04 2 6.08 2 2 2 Z " fill="#276921" transform="translate(1,1)"/>
<path d="M0 0 C9.9 0 19.8 0 30 0 C30 9.9 30 19.8 30 30 C20.1 30 10.2 30 0 30 C0 20.1 0 10.2 0 0 Z M2 2 C2 10.58 2 19.16 2 28 C10.58 28 19.16 28 28 28 C28 19.42 28 10.84 28 2 C19.42 2 10.84 2 2 2 Z " fill="#4CFF00" transform="translate(1,1)"/>
<path d="M0 0 C3.59944184 0.81214843 5.16089212 2.48352568 7.1640625 5.48828125 C7.3515625 8.11328125 7.3515625 8.11328125 6.1640625 10.48828125 C1.86340261 13.45778451 -1.67961088 14.05078961 -6.8359375 13.48828125 C-9.7734375 12.30078125 -9.7734375 12.30078125 -11.8359375 10.48828125 C-12.4609375 8.11328125 -12.4609375 8.11328125 -11.8359375 5.48828125 C-8.53623161 0.69838561 -5.5735289 -0.32620989 0 0 Z " fill="#92D38C" transform="translate(17.8359375,5.51171875)"/>
<path d="M0 0 C0.66 0.33 1.32 0.66 2 1 C2.60143198 10.53937947 2.60143198 10.53937947 0.6875 15.1875 C-2.99665318 17.67216145 -5.90384181 17.81892977 -10.29296875 17.61328125 C-14.11891655 16.74650808 -15.80954706 15.17015599 -18.05078125 12.0234375 C-19.49095734 8.9534325 -19.40573797 6.31352674 -19 3 C-18.938125 3.61875 -18.87625 4.2375 -18.8125 4.875 C-18.18007474 7.19155159 -18.18007474 7.19155159 -15.875 8.25 C-9.69033619 9.86339056 -5.49864478 9.2187189 0 6 C0 4.02 0 2.04 0 0 Z " fill="#48A740" transform="translate(24,9)"/>
<path d="M0 0 C5.28 0 10.56 0 16 0 C14 4 14 4 11 6 C7.29290742 6.33700842 4.87280471 6.46997177 1.5625 4.6875 C0 3 0 3 0 0 Z " fill="#1BA810" transform="translate(8,18)"/>
<path d="M0 0 C1.77498357 2.52615216 1.54120263 4.41201914 1.43359375 7.4609375 C1.40652344 8.45480469 1.37945313 9.44867188 1.3515625 10.47265625 C1.31675781 11.23191406 1.28195313 11.99117187 1.24609375 12.7734375 C0.91609375 12.7734375 0.58609375 12.7734375 0.24609375 12.7734375 C0.23191406 12.15855469 0.21773437 11.54367188 0.203125 10.91015625 C-0.00605353 5.80171349 -0.00605353 5.80171349 -2.75390625 1.7109375 C-7.81228289 0.1301948 -12.72446739 0.09695788 -17.75390625 1.7734375 C-18.08390625 2.7634375 -18.41390625 3.7534375 -18.75390625 4.7734375 C-19.75390625 2.7734375 -19.75390625 2.7734375 -19.25390625 0.7734375 C-14.87847824 -5.06046651 -5.44466516 -3.80762775 0 0 Z " fill="#2B6F26" transform="translate(25.75390625,6.2265625)"/>
<path d="M0 0 C0.33 0 0.66 0 1 0 C1.62580548 10.89944553 1.62580548 10.89944553 -0.8125 15.1875 C-4.21164514 18.00393455 -6.92822936 18.1178152 -11.1875 18.0625 C-12.53908203 18.04896484 -12.53908203 18.04896484 -13.91796875 18.03515625 C-14.60503906 18.02355469 -15.29210938 18.01195313 -16 18 C-16 17.67 -16 17.34 -16 17 C-14.84371094 16.96132813 -14.84371094 16.96132813 -13.6640625 16.921875 C-12.66117188 16.86515625 -11.65828125 16.8084375 -10.625 16.75 C-9.62726562 16.70359375 -8.62953125 16.6571875 -7.6015625 16.609375 C-4.88375388 16.28706616 -4.88375388 16.28706616 -3.7734375 14.140625 C-3.51820312 13.43421875 -3.26296875 12.7278125 -3 12 C-2.34 11.01 -1.68 10.02 -1 9 C-0.54605448 6.72087062 -0.54605448 6.72087062 -0.375 4.3125 C-0.30023438 3.50425781 -0.22546875 2.69601563 -0.1484375 1.86328125 C-0.09945313 1.24839844 -0.05046875 0.63351562 0 0 Z " fill="#0E330B" transform="translate(27,10)"/>
<path d="M0 0 C0.66 0.33 1.32 0.66 2 1 C2.63019694 10.99562363 2.63019694 10.99562363 0 15.1875 C-0.99 16.0846875 -0.99 16.0846875 -2 17 C-4 16 -4 16 -5 14 C-3.35 12.35 -1.7 10.7 0 9 C-1.32 8.67 -2.64 8.34 -4 8 C-2.68 7.34 -1.36 6.68 0 6 C0 4.02 0 2.04 0 0 Z " fill="#4AA643" transform="translate(24,9)"/>
<path d="M0 0 C0 0.33 0 0.66 0 1 C-2.64 1 -5.28 1 -8 1 C-8.268125 1.639375 -8.53625 2.27875 -8.8125 2.9375 C-10 5 -10 5 -13 6 C-12.67 7.32 -12.34 8.64 -12 10 C-12.66 10 -13.32 10 -14 10 C-14.50709429 6.45033999 -14.13037986 5.18926109 -12.0625 2.1875 C-7.95929087 -0.74336366 -4.88106506 -0.47853579 0 0 Z " fill="#7FC679" transform="translate(20,6)"/>
<path d="M0 0 C3.96 0 7.92 0 12 0 C12 0.33 12 0.66 12 1 C11.07767578 1.09087891 11.07767578 1.09087891 10.13671875 1.18359375 C9.32847656 1.26738281 8.52023438 1.35117188 7.6875 1.4375 C6.88699219 1.51871094 6.08648437 1.59992187 5.26171875 1.68359375 C2.83912821 1.95265693 2.83912821 1.95265693 0 3 C-0.33 3.99 -0.66 4.98 -1 6 C-1.33 5.34 -1.66 4.68 -2 4 C-1.34 2.68 -0.68 1.36 0 0 Z " fill="#42893C" transform="translate(8,5)"/>
<path d="M0 0 C0 3.51716303 -0.82445585 4.37121748 -3 7 C-5 6 -5 6 -6 4 C-4.02 2.68 -2.04 1.36 0 0 Z " fill="#389231" transform="translate(25,19)"/>
<path d="M0 0 C1.485 0.99 1.485 0.99 3 2 C3.29296875 4.6015625 3.29296875 4.6015625 3.1875 7.625 C3.16042969 8.62789062 3.13335938 9.63078125 3.10546875 10.6640625 C3.07066406 11.43492188 3.03585938 12.20578125 3 13 C2.67 13 2.34 13 2 13 C1.93941406 12.39671875 1.87882812 11.7934375 1.81640625 11.171875 C1.69072266 9.97304688 1.69072266 9.97304688 1.5625 8.75 C1.48128906 7.96109375 1.40007813 7.1721875 1.31640625 6.359375 C1.02365007 4.17635361 0.57935581 2.1226818 0 0 Z " fill="#245F1F" transform="translate(24,6)"/>
</svg>
