<?xml version="1.0" encoding="UTF-8"?>
<svg version="1.1" xmlns="http://www.w3.org/2000/svg" width="980" height="982">
<path d="M0 0 C1.39798828 1.25876953 1.39798828 1.25876953 2.82421875 2.54296875 C12.41891908 11.21251667 21.90530318 20.12634036 30.27734375 30 C32.37372279 32.43389131 34.5639738 34.77134425 36.75 37.125 C41.97786243 42.86462607 46.74578503 48.89408432 51.47998047 55.04296875 C53.07419144 57.09552177 54.69269801 59.12696636 56.31640625 61.15625 C114.06080973 133.67455992 147.2712745 224.18819878 157.203125 342.7421875 C157.21357849 344.65413406 157.21357849 344.65413406 157.22424316 346.60470581 C157.24351742 350.69480823 157.24841834 354.78485711 157.25 358.875 C157.25088371 359.91842308 157.25088371 359.91842308 157.25178528 360.98292542 C157.26404984 381.48203577 156.95032509 401.67518838 154 422 C153.70675833 424.206995 153.41379189 426.4140266 153.12109375 428.62109375 C142.26490203 506.96187717 112.14450874 586.70179029 63.27539062 649.34375 C61.39235078 651.7891065 59.60491588 654.30029507 57.8125 656.8125 C53.76384635 662.39914323 49.43738164 667.71874229 45 673 C44.55672363 673.52964355 44.11344727 674.05928711 43.65673828 674.60498047 C32.72638087 687.63542744 21.12491688 699.95109911 9.125 712 C8.3405249 712.78914795 7.5560498 713.5782959 6.74780273 714.39135742 C1.99299473 719.13305706 -2.89715893 723.63695135 -8 728 C-9.12955749 728.98493071 -10.2584903 729.97057842 -11.38671875 730.95703125 C-18.45899014 737.09275316 -25.64751349 743.00098546 -33.14648438 748.61035156 C-34.45592808 749.59208939 -35.76156282 750.57891743 -37.06445312 751.56933594 C-49.60861209 761.10267414 -62.57352684 769.76003728 -76 778 C-76.74459473 778.45858398 -77.48918945 778.91716797 -78.25634766 779.38964844 C-90.50010424 786.8862892 -103.18874044 793.53180903 -116 800 C-116.93086426 800.47083008 -117.86172852 800.94166016 -118.82080078 801.42675781 C-152.24969734 818.20292641 -188.40991376 831.08477966 -225 839 C-226.15967285 839.25088379 -227.3193457 839.50176758 -228.51416016 839.76025391 C-317.74410251 858.70128926 -409.15232149 852.90001189 -558 796 C-558.89412598 795.55688477 -559.78825195 795.11376953 -560.70947266 794.65722656 C-592.15687091 779.006045 -621.15081607 758.56104089 -648 736 C-648.51030762 735.57460938 -649.02061523 735.14921875 -649.54638672 734.7109375 C-665.59786488 721.30678037 -681.6220346 707.01090239 -695.20703125 691.0703125 C-697.33146824 688.6172589 -699.54188637 686.25296853 -701.75 683.875 C-706.97786243 678.13537393 -711.74578503 672.10591568 -716.47998047 665.95703125 C-718.07419144 663.90447823 -719.69269801 661.87303364 -721.31640625 659.84375 C-742.63392682 633.07584658 -759.70326489 603.53875019 -775 573 C-775.62914307 571.76950928 -775.62914307 571.76950928 -776.27099609 570.51416016 C-805.70297727 512.91568529 -822.96404445 442.94305145 -823.203125 378.2578125 C-823.21018463 376.98363464 -823.21724426 375.70945679 -823.22451782 374.39666748 C-823.24404696 370.30610581 -823.24920984 366.21560392 -823.25 362.125 C-823.25029457 361.42791176 -823.25058914 360.73082352 -823.25089264 360.01261139 C-823.25229173 339.52782458 -823.07541688 319.30268525 -820 299 C-819.79351833 297.58486041 -819.58748599 296.16965521 -819.38183594 294.75439453 C-811.81875655 243.30045681 -797.57644849 193.91273562 -775 147 C-774.57283691 146.09797852 -774.14567383 145.19595703 -773.70556641 144.26660156 C-763.57644465 122.9262695 -751.54979638 102.35354876 -738 83 C-737.59620117 82.42040527 -737.19240234 81.84081055 -736.77636719 81.24365234 C-726.09742776 65.94938016 -714.54457467 51.38544244 -702.375 37.25 C-701.5854895 36.32888428 -701.5854895 36.32888428 -700.7800293 35.38916016 C-697.50812034 31.61274494 -694.0924444 28.04482802 -690.53564453 24.53613281 C-688.84570575 22.84565669 -687.28164801 21.08461135 -685.75 19.25 C-679.41010904 11.91282282 -672.44860485 5.08094665 -665.0703125 -1.20703125 C-662.6172589 -3.33146824 -660.25296853 -5.54188637 -657.875 -7.75 C-652.65569545 -12.50920057 -647.200624 -16.87190066 -641.609375 -21.18359375 C-639.3065105 -22.96347012 -637.04952079 -24.77971567 -634.828125 -26.66015625 C-626.31218857 -33.80992013 -617.24268601 -40.02813141 -608 -46.1875 C-607.37182373 -46.60716034 -606.74364746 -47.02682068 -606.09643555 -47.459198 C-568.17117389 -72.73672868 -527.39665942 -92.96731854 -484 -107 C-483.06526855 -107.30244629 -482.13053711 -107.60489258 -481.16748047 -107.91650391 C-390.32662656 -137.00729828 -292.10630665 -138.5755459 0 0 Z M-400 -102 C-401.01178314 -101.84017639 -401.01178314 -101.84017639 -402.04400635 -101.67712402 C-444.31075376 -94.96453167 -485.00426261 -82.56755578 -524 -65 C-525.27302979 -64.43466553 -525.27302979 -64.43466553 -526.57177734 -63.85791016 C-565.09327911 -46.67471475 -601.20067969 -22.61285518 -633 5 C-633.73476563 5.63421875 -634.46953125 6.2684375 -635.2265625 6.921875 C-637.16187418 8.60274332 -639.08144344 10.30003903 -641 12 C-641.70334473 12.6185083 -642.40668945 13.2370166 -643.13134766 13.87426758 C-649.51235771 19.54118376 -655.60411319 25.44917589 -661.6237793 31.4934082 C-663.1927236 33.06774155 -664.76698558 34.63661589 -666.34179688 36.20507812 C-671.77137405 41.63081127 -677.03804649 47.13860376 -682 53 C-682.845625 53.96421875 -683.69125 54.9284375 -684.5625 55.921875 C-692.87937255 65.57157969 -700.46472042 75.73392364 -708 86 C-708.5273877 86.71140137 -709.05477539 87.42280273 -709.59814453 88.15576172 C-762.17899591 159.26233149 -795.08701054 251.64468811 -795.16796875 340.33203125 C-795.17129715 341.64749435 -795.17462555 342.96295746 -795.17805481 344.31828308 C-795.18398106 347.08548808 -795.1859018 349.85266217 -795.18530273 352.61987305 C-795.18522203 355.39533076 -795.1920871 358.17062146 -795.20581055 360.94604492 C-795.3190867 384.25846242 -794.61949657 407.44419374 -790.875 430.5 C-790.77151245 431.14756256 -790.6680249 431.79512512 -790.56140137 432.46231079 C-776.71048691 518.39648726 -738.38287463 602.37404696 -679.1953125 666.59375 C-677.9866843 667.91850973 -676.78607087 669.2513487 -675.6237793 670.61694336 C-670.45523017 676.67116991 -664.86569171 682.28624896 -659.23022461 687.90014648 C-657.56573723 689.5592732 -655.90666553 691.22368051 -654.24804688 692.88867188 C-648.67147136 698.46899852 -643.03048072 703.90691773 -637 709 C-636.03578125 709.845625 -635.0715625 710.69125 -634.078125 711.5625 C-624.42916532 719.87873044 -614.2713465 727.47309233 -604 735 C-603.26201172 735.54333984 -602.52402344 736.08667969 -601.76367188 736.64648438 C-590.59891992 744.83259965 -578.98075111 752.07146232 -567 759 C-565.94232422 759.61270752 -565.94232422 759.61270752 -564.86328125 760.23779297 C-560.93831335 762.50110255 -556.98976184 764.71688156 -553.01611328 766.89355469 C-551.65753028 767.63914662 -550.30177673 768.38991473 -548.94873047 769.14550781 C-490.60701572 801.64612501 -419.90169053 821.96016898 -352.93359375 822.203125 C-351.63230026 822.21009399 -350.33100677 822.21706299 -348.99028015 822.22424316 C-344.80601587 822.24353451 -340.62180391 822.24842026 -336.4375 822.25 C-335.36823399 822.25088371 -335.36823399 822.25088371 -334.27736664 822.25178528 C-311.39741349 822.26513119 -288.7367875 821.75029598 -266 819 C-264.86385254 818.87141602 -263.72770508 818.74283203 -262.55712891 818.61035156 C-186.46993019 809.72804974 -110.33796989 775.16218178 -50 729 C-49.36126953 728.5143457 -48.72253906 728.02869141 -48.06445312 727.52832031 C-26.16960361 710.83262129 -4.45652099 691.96216046 13.3671875 670.9140625 C15.99659378 667.83174414 18.7562867 664.86696667 21.49609375 661.8828125 C25.13291075 657.69565034 28.56065956 653.34990834 32 649 C32.61657471 648.22285645 33.23314941 647.44571289 33.8684082 646.64501953 C50.14745085 626.00665289 64.45651379 604.09532836 77 581 C77.73959961 579.64624268 77.73959961 579.64624268 78.49414062 578.26513672 C109.57493598 521.06091292 128.41931109 456.97995221 133 392 C133.08459473 390.89350098 133.08459473 390.89350098 133.17089844 389.76464844 C141.05936302 284.13390667 110.00583044 176.63033839 34 71 C33.57493164 70.46310547 33.14986328 69.92621094 32.71191406 69.37304688 C28.04678549 63.50853002 23.16512847 57.87295234 18.1171875 52.3359375 C16.20919797 50.23081252 14.34952931 48.09386366 12.5 45.9375 C8.55362172 41.40375379 4.28188533 37.21379882 0 33 C-2.88665004 30.12807776 -5.75109819 27.23586465 -8.6015625 24.328125 C-15.33273328 17.48926217 -22.01521903 10.86907375 -29.56640625 4.93359375 C-31.92615377 3.05867397 -34.14998529 1.09438505 -36.375 -0.9375 C-41.98749822 -5.96598165 -47.96204094 -10.50140239 -54 -15 C-54.67208496 -15.50192871 -55.34416992 -16.00385742 -56.03662109 -16.52099609 C-73.13372355 -29.23121316 -91.05758166 -40.31341525 -109.65332031 -50.68945312 C-111.67799071 -51.82016793 -113.69488946 -52.96341085 -115.7109375 -54.109375 C-169.14014638 -83.69717488 -231.41237208 -99.9597587 -292 -105 C-293.13663086 -105.09498779 -294.27326172 -105.18997559 -295.44433594 -105.2878418 C-330.10416502 -107.81597587 -365.65223649 -107.5206049 -400 -102 Z " fill="#0B0B0B" transform="translate(823,131)"/>
<path d="M0 0 C9.27805142 0.00376335 18.55609213 0.00241573 27.83414316 -0.00180078 C83.47885082 -0.02638198 139.12052858 0.05484581 194.76340246 0.54248261 C198.33616201 0.57351861 201.90893065 0.60322942 205.48170328 0.63271689 C211.04773021 0.67925985 216.61368991 0.73077521 222.17963362 0.78637052 C224.19546936 0.80605164 226.21131787 0.82447795 228.2271781 0.84146714 C271.35107235 1.21254942 271.35107235 1.21254942 280.07730722 9.37466407 C284.43480371 14.06654877 284.06535866 17.82019368 283.95621347 23.95278907 C283.5723307 28.82929999 282.37540136 31.66803092 278.70621347 34.87857032 C252.92102735 45.62239787 215.69723082 40.27954206 187.99888349 40.25929499 C183.3209523 40.25699326 178.64302454 40.26054394 173.96509409 40.26327491 C164.83926156 40.26768289 155.71343734 40.26677807 146.58760451 40.26386227 C139.15111806 40.26158655 131.71463391 40.26130502 124.27814722 40.26238608 C122.67907733 40.26261593 122.67907733 40.26261593 121.04770301 40.26285043 C118.88060394 40.26317022 116.71350487 40.26349443 114.54640581 40.26382302 C94.29895738 40.26666377 74.05151351 40.26341394 53.80406584 40.25802265 C36.53039792 40.25356495 19.25673674 40.25432474 1.98306894 40.25894141 C-18.17947798 40.26432783 -38.34202092 40.26637978 -58.50456846 40.26332915 C-60.66714549 40.26301068 -62.82972252 40.26269631 -64.99229956 40.26238608 C-66.0556973 40.26223181 -67.11909504 40.26207753 -68.21471695 40.26191858 C-75.61227122 40.26106487 -83.0098229 40.26249142 -90.40737677 40.26486564 C-99.46669724 40.26770978 -108.52600908 40.26683082 -117.58532859 40.26158489 C-122.18416711 40.25900731 -126.78299142 40.25783761 -131.38182974 40.26123405 C-150.77937214 40.27429722 -170.16451499 40.11594776 -189.55767202 39.68298316 C-190.46799516 39.66356406 -191.37831829 39.64414497 -192.31622697 39.62413742 C-223.93858067 38.93385284 -223.93858067 38.93385284 -230.89144278 32.69497657 C-234.56351438 28.42964549 -235.00180552 24.28792987 -234.70003653 18.77310157 C-233.77012671 12.7197463 -231.13082132 9.4679877 -226.29378653 5.81607032 C-215.90859561 -0.35701784 -202.7249567 0.79446944 -191.01741934 0.71890235 C-189.17900022 0.70032958 -187.34058823 0.68103944 -185.50218344 0.66109824 C-180.47802816 0.60949443 -175.45384837 0.57071247 -170.42955828 0.53494 C-167.21391616 0.51113859 -163.99832117 0.48387667 -160.78271627 0.45550895 C-107.18956091 -0.01545024 -53.5948086 -0.02421177 0 0 Z " fill="#060606" transform="translate(465.2937865257263,607.871429681778)"/>
<path d="M0 0 C7.11615605 0.00410429 14.23231179 0.00587701 21.34846878 0.00746536 C80.78978647 0.02248347 140.22983794 0.12787579 199.66977453 0.5507288 C201.87273521 0.56623411 204.07569858 0.58127152 206.27866364 0.59614182 C214.47668659 0.65158127 222.67463246 0.7121516 230.87255096 0.7815876 C233.26942973 0.80158433 235.66631862 0.82041496 238.06321716 0.83788109 C287.56805419 1.20882949 287.56805419 1.20882949 295.81181717 9.26939774 C299.01143759 12.92172224 300.29979368 15.81342853 300.81572342 20.62877274 C300.30552697 25.39060625 299.248636 28.45655337 295.67119217 31.76549149 C275.6383533 47.58492256 232.60683631 40.27647363 207.9533726 40.2594974 C203.00097882 40.25720045 198.04858831 40.26074393 193.09619522 40.26347733 C183.43416418 40.26788885 173.77214097 40.26697927 164.11010963 40.26406468 C156.2463241 40.26179221 148.38254073 40.26150606 140.51875496 40.2625885 C139.39302353 40.26274173 138.26729211 40.26289497 137.10744761 40.26305284 C134.81944677 40.26337262 132.53144593 40.26369683 130.24344509 40.26402543 C108.8642814 40.26686673 87.48512203 40.26361454 66.10595905 40.25822507 C47.82439723 40.25375888 29.54284176 40.25453407 11.26128006 40.25914383 C-10.04780369 40.26451459 -31.35688367 40.26659153 -52.665968 40.26353157 C-54.94514279 40.26321307 -57.22431757 40.2628987 -59.50349236 40.2625885 C-60.62443726 40.26243423 -61.74538216 40.26227995 -62.90029509 40.262121 C-70.73973229 40.26126329 -78.57916707 40.26270255 -86.4186039 40.26506805 C-95.99364582 40.26789418 -105.56867956 40.26706919 -115.14372056 40.26178731 C-120.01422826 40.25918775 -124.8847224 40.25808035 -129.75522995 40.26143646 C-146.78705077 40.27205352 -163.81415682 40.2618894 -180.83956528 39.74568558 C-181.96739738 39.71532876 -183.09522949 39.68497195 -184.25723833 39.65369523 C-195.59023635 39.24620235 -207.02340733 38.65912364 -215.99677658 31.06627274 C-219.64811001 26.53861928 -219.10643889 20.6479752 -218.55927658 15.12877274 C-216.07146273 9.63485049 -211.57684227 6.29179669 -206.55927658 3.12877274 C-196.69951591 -0.15781416 -185.19755617 0.91836441 -174.88764572 0.81676102 C-173.11347978 0.79632406 -171.3393169 0.77561896 -169.56515694 0.75466919 C-164.73693748 0.69929803 -159.90867319 0.65053169 -155.08036304 0.60380697 C-152.00350414 0.57380806 -148.92666263 0.5423694 -145.84982109 0.51064301 C-97.23372536 0.01453969 -48.6181835 -0.02875157 0 0 Z " fill="#060606" transform="translate(449.55927658081055,470.8712272644043)"/>
<path d="M0 0 C7.51718049 0.00232157 15.03435872 0.00255895 22.55153947 0.00148655 C23.63791042 0.00133331 24.72428136 0.00118008 25.84357263 0.0010222 C28.05275009 0.00070237 30.26192756 0.00037816 32.47110502 0.00004961 C52.94367685 -0.00276866 73.41624412 0.00042648 93.8888152 0.00584998 C111.38674504 0.01034165 128.88466825 0.00951568 146.38259798 0.00493122 C166.86750015 -0.00043355 187.35239841 -0.00252214 207.83730119 0.00054348 C210.02367367 0.00086195 212.21004614 0.00117632 214.39641862 0.00148655 C215.47135982 0.00164082 216.54630102 0.0017951 217.65381619 0.00195405 C225.16788421 0.0028115 232.6819497 0.00137367 240.19601732 -0.00099301 C249.3410418 -0.00381127 258.48605771 -0.00300912 267.63108123 0.00228774 C272.28034891 0.0048934 276.92960234 0.00598342 281.57886987 0.00263859 C292.44124462 -0.00424585 303.30195292 0.03178972 314.16384798 0.13530231 C315.37914233 0.14312056 316.59443669 0.1509388 317.84655815 0.15899397 C321.03743261 0.18861796 324.22529966 0.25190425 327.4152823 0.33088947 C328.71763989 0.33871962 328.71763989 0.33871962 330.04630774 0.34670795 C337.0493641 0.59320501 343.61291675 2.89500299 348.86038678 7.68342961 C352.75070426 12.17443233 353.52502182 16.05384807 353.44119173 21.79155231 C352.82680457 26.98355646 350.03274554 30.18163425 346.60134798 33.94780231 C339.91877432 39.07540778 329.13338082 38.50482757 321.06765657 38.75221515 C319.96458351 38.78983081 318.86151044 38.82744648 317.72501092 38.866202 C301.04963178 39.36558546 284.36206071 39.27708074 267.6810494 39.26602698 C262.54939877 39.26373501 257.41775135 39.26727112 252.28610139 39.2700069 C242.26919843 39.27442347 232.25230302 39.27350657 222.23539978 39.27059426 C214.08502267 39.26832394 205.93464767 39.26803472 197.78427034 39.26911808 C196.03568489 39.26934793 196.03568489 39.26934793 194.25177448 39.26958242 C191.88267538 39.26990219 189.51357628 39.2702264 187.14447718 39.27055501 C164.99666177 39.27339775 142.84885052 39.27014176 120.70103579 39.26475465 C101.75048673 39.26028771 82.7999438 39.26106398 63.84939485 39.26567341 C41.77382658 39.27104053 19.69826194 39.27312317 -2.37730689 39.27006114 C-4.73706272 39.26974264 -7.09681855 39.26942827 -9.45657439 39.26911808 C-10.61722895 39.2689638 -11.7778835 39.26880953 -12.97370941 39.26865058 C-21.10207253 39.26779183 -29.23043331 39.26923439 -37.35879607 39.27159763 C-47.28201725 39.27441965 -57.20523053 39.27360716 -67.12845082 39.26831689 C-72.17882147 39.26571202 -77.22917903 39.26461939 -82.27954955 39.26796604 C-117.0032425 39.28878629 -117.0032425 39.28878629 -132.80246062 38.75221515 C-133.80058083 38.72185834 -134.79870104 38.69150152 -135.82706732 38.6602248 C-154.4004049 37.89539744 -154.4004049 37.89539744 -160.83615202 31.13530231 C-164.20502248 26.37689776 -165.67456559 22.00419725 -164.83615202 16.13530231 C-162.98960143 10.8918886 -160.65865846 7.09456763 -155.83615202 4.13530231 C-149.14176054 1.0703126 -143.39335109 0.66842643 -136.08398528 0.62825275 C-134.90713943 0.61061902 -133.73029358 0.59298528 -132.51778574 0.57481719 C-129.2446661 0.52975222 -125.97176 0.49829179 -122.69843391 0.47349916 C-119.85450057 0.44980912 -117.01072594 0.41557466 -114.16689704 0.38182621 C-76.11398861 -0.06434464 -38.05487354 -0.01201962 0 0 Z " fill="#060606" transform="translate(395.8361520245671,343.86469768732786)"/>
<path d="M0 0 C0.66 0.33 1.32 0.66 2 1 C-8.89 11.89 -19.78 22.78 -31 34 C-31.66 33.67 -32.32 33.34 -33 33 C-13.72459654 12.19686641 -13.72459654 12.19686641 -4.76171875 4.54296875 C-3.10184189 3.08919634 -1.54066019 1.57858414 0 0 Z " fill="#6C6C6C" transform="translate(163,125)"/>
<path d="M0 0 C0.66 0.33 1.32 0.66 2 1 C-0.97 3.97 -3.94 6.94 -7 10 C-7 6.04435836 -5.59478606 4.89133304 -3 2 C-2.01 1.34 -1.02 0.68 0 0 Z " fill="#737373" transform="translate(240,613)"/>
<path d="M0 0 C-1.49097658 3.7952131 -3.75700849 5.61042731 -7 8 C-4.18918919 0 -4.18918919 0 0 0 Z " fill="#6B6B6B" transform="translate(240,349)"/>
</svg>
