<?xml version="1.0" encoding="UTF-8"?>
<svg version="1.1" xmlns="http://www.w3.org/2000/svg" width="982" height="980">
<path d="M0 0 C1.27417786 -0.00705963 2.54835571 -0.01411926 3.86114502 -0.02139282 C7.95170669 -0.04092196 12.04220858 -0.04608484 16.1328125 -0.046875 C17.17844486 -0.04731686 17.17844486 -0.04731686 18.24520111 -0.04776764 C38.72998792 -0.04916673 58.95512725 0.12770812 79.2578125 3.203125 C80.67295209 3.40960667 82.08815729 3.61563901 83.50341797 3.82128906 C134.95735569 11.38436845 184.34507688 25.62667651 231.2578125 48.203125 C232.15983398 48.63028809 233.06185547 49.05745117 233.99121094 49.49755859 C255.331543 59.62668035 275.90426374 71.65332862 295.2578125 85.203125 C295.83740723 85.60692383 296.41700195 86.01072266 297.01416016 86.42675781 C312.30843234 97.10569724 326.87237006 108.65855033 341.0078125 120.828125 C341.62188965 121.35446533 342.2359668 121.88080566 342.86865234 122.4230957 C346.64506756 125.69500466 350.21298448 129.1106806 353.72167969 132.66748047 C355.41215581 134.35741925 357.17320115 135.92147699 359.0078125 137.453125 C366.34498968 143.79301596 373.17686585 150.75452015 379.46484375 158.1328125 C381.58928074 160.5858661 383.79969887 162.95015647 386.0078125 165.328125 C390.76701307 170.54742955 395.12971316 176.002501 399.44140625 181.59375 C401.22128262 183.8966145 403.03752817 186.15360421 404.91796875 188.375 C412.06773263 196.89093643 418.28594391 205.96043899 424.4453125 215.203125 C425.07480301 216.1453894 425.07480301 216.1453894 425.7170105 217.10668945 C450.99454118 255.03195111 471.22513104 295.80646558 485.2578125 339.203125 C485.56025879 340.13785645 485.86270508 341.07258789 486.17431641 342.03564453 C515.26511078 432.87649844 516.8333584 531.09681835 452.94921875 718.27734375 C432.86072488 756.5243138 407.31773223 791.332574 378.2578125 823.203125 C377.41863281 824.13511719 376.57945312 825.06710937 375.71484375 826.02734375 C367.04529583 835.62204408 358.13147214 845.10842818 348.2578125 853.48046875 C345.82392119 855.57684779 343.48646825 857.7670988 341.1328125 859.953125 C335.39318643 865.18098743 329.36372818 869.94891003 323.21484375 874.68310547 C321.16229073 876.27731644 319.13084614 877.89582301 317.1015625 879.51953125 C244.58325258 937.26393473 154.06961372 970.4743995 35.515625 980.40625 C33.60367844 980.41670349 33.60367844 980.41670349 31.65310669 980.42736816 C27.56300427 980.44664242 23.47295539 980.45154334 19.3828125 980.453125 C18.33938942 980.45400871 18.33938942 980.45400871 17.27488708 980.45491028 C-3.22422327 980.46717484 -23.41737588 980.15345009 -43.7421875 977.203125 C-45.9491825 976.90988333 -48.1562141 976.61691689 -50.36328125 976.32421875 C-128.70406467 965.46802703 -208.44397779 935.34763374 -271.0859375 886.47851562 C-273.531294 884.59547578 -276.04248257 882.80804088 -278.5546875 881.015625 C-284.14133073 876.96697135 -289.46092979 872.64050664 -294.7421875 868.203125 C-295.27183105 867.75984863 -295.80147461 867.31657227 -296.34716797 866.85986328 C-309.37761494 855.92950587 -321.69328661 844.32804188 -333.7421875 832.328125 C-334.53133545 831.5436499 -335.3204834 830.7591748 -336.13354492 829.95092773 C-340.87524456 825.19611973 -345.37913885 820.30596607 -349.7421875 815.203125 C-350.72711821 814.07356751 -351.71276592 812.9446347 -352.69921875 811.81640625 C-358.83494066 804.74413486 -364.74317296 797.55561151 -370.35253906 790.05664062 C-371.33427689 788.74719692 -372.32110493 787.44156218 -373.31152344 786.13867188 C-382.84486164 773.59451291 -391.50222478 760.62959816 -399.7421875 747.203125 C-400.20077148 746.45853027 -400.65935547 745.71393555 -401.13183594 744.94677734 C-408.6284767 732.70302076 -415.27399653 720.01438456 -421.7421875 707.203125 C-422.21301758 706.27226074 -422.68384766 705.34139648 -423.16894531 704.38232422 C-439.94511391 670.95342766 -452.82696716 634.79321124 -460.7421875 598.203125 C-461.11851318 596.46361572 -461.11851318 596.46361572 -461.50244141 594.68896484 C-480.44347676 505.45902249 -474.64219939 414.05080351 -417.7421875 265.203125 C-417.29907227 264.30899902 -416.85595703 263.41487305 -416.39941406 262.49365234 C-400.7482325 231.04625409 -380.30322839 202.05230893 -357.7421875 175.203125 C-357.31679688 174.69281738 -356.89140625 174.18250977 -356.453125 173.65673828 C-343.04896787 157.60526012 -328.75308989 141.5810904 -312.8125 127.99609375 C-310.3594464 125.87165676 -307.99515603 123.66123863 -305.6171875 121.453125 C-299.87756143 116.22526257 -293.84810318 111.45733997 -287.69921875 106.72314453 C-285.64666573 105.12893356 -283.61522114 103.51042699 -281.5859375 101.88671875 C-254.81803408 80.56919818 -225.28093769 63.49986011 -194.7421875 48.203125 C-193.51169678 47.57398193 -193.51169678 47.57398193 -192.25634766 46.93212891 C-134.65787279 17.50014773 -64.68523895 0.23908055 0 0 Z M-52.2421875 32.328125 C-52.88975006 32.43161255 -53.53731262 32.5351001 -54.20449829 32.64172363 C-140.13867476 46.49263809 -224.11623446 84.82025037 -288.3359375 144.0078125 C-289.66069723 145.2164407 -290.9935362 146.41705413 -292.35913086 147.5793457 C-298.41335741 152.74789483 -304.02843646 158.33743329 -309.64233398 163.97290039 C-311.3014607 165.63738777 -312.96586801 167.29645947 -314.63085938 168.95507812 C-320.21118602 174.53165364 -325.64910523 180.17264428 -330.7421875 186.203125 C-331.5878125 187.16734375 -332.4334375 188.1315625 -333.3046875 189.125 C-341.62091794 198.77395968 -349.21527983 208.9317785 -356.7421875 219.203125 C-357.28552734 219.94111328 -357.82886719 220.67910156 -358.38867188 221.43945312 C-366.57478715 232.60420508 -373.81364982 244.22237389 -380.7421875 256.203125 C-381.15065918 256.90824219 -381.55913086 257.61335937 -381.97998047 258.33984375 C-384.24329005 262.26481165 -386.45906906 266.21336316 -388.63574219 270.18701172 C-389.38133412 271.54559472 -390.13210223 272.90134827 -390.88769531 274.25439453 C-423.38831251 332.59610928 -443.70235648 403.30143447 -443.9453125 470.26953125 C-443.95228149 471.57082474 -443.95925049 472.87211823 -443.96643066 474.21284485 C-443.98572201 478.39710913 -443.99060776 482.58132109 -443.9921875 486.765625 C-443.99277664 487.47846901 -443.99336578 488.19131302 -443.99397278 488.92575836 C-444.00731869 511.80571151 -443.49248348 534.4663375 -440.7421875 557.203125 C-440.61360352 558.33927246 -440.48501953 559.47541992 -440.35253906 560.64599609 C-431.47023724 636.73319481 -396.90436928 712.86515511 -350.7421875 773.203125 C-350.2565332 773.84185547 -349.77087891 774.48058594 -349.27050781 775.13867188 C-332.57480879 797.03352139 -313.70434796 818.74660401 -292.65625 836.5703125 C-289.57393164 839.19971878 -286.60915417 841.9594117 -283.625 844.69921875 C-279.43783784 848.33603575 -275.09209584 851.76378456 -270.7421875 855.203125 C-269.96504395 855.81969971 -269.18790039 856.43627441 -268.38720703 857.0715332 C-247.74884039 873.35057585 -225.83751586 887.65963879 -202.7421875 900.203125 C-201.38843018 900.94272461 -201.38843018 900.94272461 -200.00732422 901.69726562 C-142.80310042 932.77806098 -78.72213971 951.62243609 -13.7421875 956.203125 C-12.63568848 956.28771973 -12.63568848 956.28771973 -11.50683594 956.37402344 C94.12390583 964.26248802 201.62747411 933.20895544 307.2578125 857.203125 C308.0631543 856.56552246 308.0631543 856.56552246 308.88476562 855.91503906 C314.74928248 851.24991049 320.38486016 846.36825347 325.921875 841.3203125 C328.02699998 839.41232297 330.16394884 837.55265431 332.3203125 835.703125 C336.85405871 831.75674672 341.04401368 827.48501033 345.2578125 823.203125 C348.12973474 820.31647496 351.02194785 817.45202681 353.9296875 814.6015625 C360.76855033 807.87039172 367.38873875 801.18790597 373.32421875 793.63671875 C375.19913853 791.27697123 377.16342745 789.05313971 379.1953125 786.828125 C384.22379415 781.21562678 388.75921489 775.24108406 393.2578125 769.203125 C393.75974121 768.53104004 394.26166992 767.85895508 394.77880859 767.16650391 C407.48902566 750.06940145 418.57122775 732.14554334 428.94726562 713.54980469 C430.07798043 711.52513429 431.22122335 709.50823554 432.3671875 707.4921875 C461.95498738 654.06297862 478.2175712 591.79075292 483.2578125 531.203125 C483.35280029 530.06649414 483.44778809 528.92986328 483.5456543 527.75878906 C486.07378837 493.09895998 485.7784174 457.55088851 480.2578125 423.203125 C480.15126343 422.52860291 480.04471436 421.85408081 479.93493652 421.15911865 C473.22234417 378.89237124 460.82536828 338.19886239 443.2578125 299.203125 C442.88092285 298.35443848 442.5040332 297.50575195 442.11572266 296.63134766 C424.93252725 258.10984589 400.87066768 222.00244531 373.2578125 190.203125 C372.62359375 189.46835938 371.989375 188.73359375 371.3359375 187.9765625 C369.65506918 186.04125082 367.95777347 184.12168156 366.2578125 182.203125 C365.6393042 181.49978027 365.0207959 180.79643555 364.38354492 180.07177734 C358.71662874 173.69076729 352.80863661 167.59901181 346.7644043 161.5793457 C345.19007095 160.0104014 343.62119661 158.43613942 342.05273438 156.86132812 C336.62700123 151.43175095 331.11920874 146.16507851 325.2578125 141.203125 C323.81148437 139.9346875 323.81148437 139.9346875 322.3359375 138.640625 C312.68623281 130.32375245 302.52388886 122.73840458 292.2578125 115.203125 C291.19071045 114.41204346 291.19071045 114.41204346 290.10205078 113.60498047 C218.99548101 61.02412909 126.61312439 28.11611446 37.92578125 28.03515625 C36.61031815 28.03182785 35.29485504 28.02849945 33.93952942 28.02507019 C31.17232442 28.01914394 28.40515033 28.0172232 25.63793945 28.01782227 C22.86248174 28.01790297 20.08719104 28.0110379 17.31176758 27.99731445 C-6.00064992 27.8840383 -29.18638124 28.58362843 -52.2421875 32.328125 Z " fill="#0B0B0B" transform="translate(472.7421875,-0.203125)"/>
<path d="M0 0 C5.3438599 2.55936527 8.41117724 7.211442 10.94921875 12.40625 C13.66906631 22.20871909 13.2937982 32.59851477 13.35888672 42.68261719 C13.37745948 44.52103631 13.39674963 46.3594483 13.41669083 48.19785309 C13.46829464 53.22200837 13.5070766 58.24618815 13.54284906 63.27047825 C13.56665047 66.48612037 13.5939124 69.70171535 13.62228012 72.91732025 C14.09323931 126.51047562 14.10200084 180.10522792 14.07778907 233.70003653 C14.07402571 242.97808795 14.07537333 252.25612866 14.07958984 261.53417969 C14.10417105 317.17888734 14.02294326 372.82056511 13.53530645 428.46343899 C13.50427046 432.03619854 13.47455965 435.60896718 13.44507217 439.18173981 C13.39852922 444.74776674 13.34701386 450.31372644 13.29141855 455.87967014 C13.27173743 457.89550589 13.25331111 459.91135439 13.23632193 461.92721462 C12.86523964 505.05110887 12.86523964 505.05110887 4.703125 513.77734375 C0.01124029 518.13484024 -3.74240462 517.76539519 -9.875 517.65625 C-14.75151092 517.27236722 -17.59024185 516.07543788 -20.80078125 512.40625 C-31.5446088 486.62106387 -26.20175299 449.39726734 -26.18150592 421.69892001 C-26.17920419 417.02098883 -26.18275488 412.34306107 -26.18548584 407.66513062 C-26.18989382 398.53929809 -26.188989 389.41347386 -26.1860732 380.28764103 C-26.18379748 372.85115459 -26.18351595 365.41467044 -26.18459702 357.97818375 C-26.18475025 356.91213716 -26.18490348 355.84609056 -26.18506136 354.74773953 C-26.18538115 352.58064046 -26.18570537 350.4135414 -26.18603395 348.24644233 C-26.1888747 327.99899391 -26.18562487 307.75155004 -26.18023358 287.50410236 C-26.17577588 270.23043445 -26.17653568 252.95677326 -26.18115234 235.68310547 C-26.18653876 215.52055855 -26.18859071 195.35801561 -26.18554008 175.19546807 C-26.18522161 173.03289104 -26.18490724 170.870314 -26.18459702 168.70773697 C-26.18444274 167.64433923 -26.18428846 166.58094149 -26.18412951 165.48531958 C-26.1832758 158.08776531 -26.18470235 150.69021363 -26.18707657 143.29265976 C-26.18992071 134.23333929 -26.18904176 125.17402745 -26.18379582 116.11470793 C-26.18121824 111.51586941 -26.18004854 106.91704511 -26.18344498 102.31820679 C-26.19650816 82.92066438 -26.03815869 63.53552154 -25.60519409 44.1423645 C-25.585775 43.23204137 -25.5663559 42.32171823 -25.54634835 41.38380955 C-24.85606377 9.76145586 -24.85606377 9.76145586 -18.6171875 2.80859375 C-13.26319462 -1.80071907 -6.60731193 -1.91297412 0 0 Z " fill="#060606" transform="translate(360.05078125,231.59375)"/>
<path d="M0 0 C8.00776369 7.4490825 10.04151111 13.81626395 10.6875 24.5 C10.87634749 30.38990977 10.94144221 36.2791956 10.99951172 42.17163086 C11.01994868 43.94579681 11.04065377 45.71995968 11.06160355 47.49411964 C11.11697471 52.3223391 11.16574104 57.15060339 11.21246576 61.97891355 C11.24246468 65.05577244 11.27390334 68.13261396 11.30562973 71.20945549 C11.80173305 119.82555122 11.8450243 168.44109308 11.81627274 217.05927658 C11.81216845 224.17543263 11.81039572 231.29158837 11.80880737 238.40774536 C11.79378927 297.84906305 11.68839694 357.28911452 11.26554394 416.72905111 C11.25003863 418.9320118 11.23500122 421.13497516 11.22013092 423.33794022 C11.16469147 431.53596317 11.10412113 439.73390904 11.03468513 447.93182755 C11.01468841 450.32870631 10.99585778 452.7255952 10.97839165 455.12249374 C10.60744325 504.62733077 10.60744325 504.62733077 2.546875 512.87109375 C-1.10544951 516.07071417 -3.9971558 517.35907026 -8.8125 517.875 C-13.57433352 517.36480355 -16.64028064 516.30791258 -19.94921875 512.73046875 C-35.76864983 492.69762988 -28.46020089 449.66611289 -28.44322467 425.01264918 C-28.44092772 420.0602554 -28.44447119 415.10786489 -28.44720459 410.1554718 C-28.45161612 400.49344076 -28.45070653 390.83141755 -28.44779195 381.16938622 C-28.44551947 373.30560068 -28.44523332 365.44181731 -28.44631577 357.57803154 C-28.446469 356.45230011 -28.44662223 355.32656869 -28.44678011 354.16672419 C-28.44709988 351.87872335 -28.4474241 349.59072251 -28.4477527 347.30272167 C-28.450594 325.92355799 -28.4473418 304.54439861 -28.44195233 283.16523563 C-28.43748614 264.88367381 -28.43826134 246.60211835 -28.44287109 228.32055664 C-28.44824185 207.01147289 -28.4503188 185.70239291 -28.44725883 164.39330858 C-28.44694033 162.1141338 -28.44662596 159.83495901 -28.44631577 157.55578423 C-28.44608435 155.87436687 -28.44608435 155.87436687 -28.44584826 154.15898149 C-28.44499055 146.31954429 -28.44642981 138.48010951 -28.44879532 130.64067268 C-28.45162145 121.06563076 -28.45079645 111.49059702 -28.44551457 101.91555602 C-28.44291501 97.04504832 -28.44180761 92.17455418 -28.44516373 87.30404663 C-28.45578079 70.27222581 -28.44561666 53.24511976 -27.92941284 36.2197113 C-27.89905603 35.0918792 -27.86869921 33.96404709 -27.83742249 32.80203825 C-27.42992961 21.46904023 -26.8428509 10.03586925 -19.25 1.0625 C-14.05845219 -3.1242321 -5.78966082 -2.6217332 0 0 Z " fill="#060606" transform="translate(499.3125,232.5)"/>
<path d="M0 0 C5.52680544 3.06214896 8.02117571 6.99496908 10.17085862 12.90795732 C11.41244845 17.56079896 11.29322983 22.27594547 11.31954956 27.06466675 C11.3371833 28.2415126 11.35481703 29.41835845 11.37298512 30.63086629 C11.4180501 33.90398593 11.44951052 37.17689202 11.47430316 40.45021811 C11.4979932 43.29415146 11.53222766 46.13792609 11.56597611 48.98175498 C12.01214695 87.03466341 11.95982194 125.09377849 11.94780231 163.14865202 C11.94548074 170.66583252 11.94524336 178.18301075 11.94631577 185.7001915 C11.946469 186.78656244 11.94662223 187.87293338 11.94678011 188.99222466 C11.94709994 191.20140212 11.94742415 193.41057958 11.9477527 195.61975704 C11.95057097 216.09232887 11.94737583 236.56489614 11.94195233 257.03746723 C11.93746066 274.53539706 11.93828663 292.03332028 11.94287109 309.53125 C11.94823586 330.01615217 11.95032446 350.50105044 11.94725883 370.98595321 C11.94694036 373.17232569 11.94662599 375.35869817 11.94631577 377.54507065 C11.94608435 379.15748245 11.94608435 379.15748245 11.94584826 380.80246822 C11.94499081 388.31653623 11.94642864 395.83060172 11.94879532 403.34466934 C11.95161359 412.48969383 11.95081143 421.63470974 11.94551457 430.77973326 C11.94290892 435.42900093 11.94181889 440.07825437 11.94516373 444.7275219 C11.95204816 455.58989664 11.91601259 466.45060494 11.8125 477.3125 C11.80468175 478.52779436 11.79686351 479.74308871 11.78880835 480.99521017 C11.75918435 484.18608463 11.69589806 487.37395168 11.61691284 490.56393433 C11.61169274 491.43217272 11.60647265 492.30041111 11.60109437 493.19495976 C11.3545973 500.19801612 9.05279932 506.76156878 4.26437271 512.00903881 C-0.22663002 515.89935628 -4.10604576 516.67367384 -9.84375 516.58984375 C-15.03575415 515.97545659 -18.23383194 513.18139757 -22 509.75 C-27.12760546 503.06742635 -26.55702526 492.28203285 -26.80441284 484.21630859 C-26.8420285 483.11323553 -26.87964416 482.01016247 -26.91839969 480.87366295 C-27.41778314 464.1982838 -27.32927842 447.51071274 -27.31822467 430.82970142 C-27.3159327 425.6980508 -27.3194688 420.56640338 -27.32220459 415.43475342 C-27.32662115 405.41785046 -27.32570426 395.40095504 -27.32279195 385.3840518 C-27.32052163 377.2336747 -27.32023241 369.08329969 -27.32131577 360.93292236 C-27.321469 359.76719873 -27.32162223 358.6014751 -27.32178011 357.40042651 C-27.32209987 355.03132741 -27.32242409 352.66222831 -27.3227527 350.29312921 C-27.32559544 328.1453138 -27.32233944 305.99750254 -27.31695233 283.84968781 C-27.3124854 264.89913876 -27.31326167 245.94859582 -27.31787109 226.99804688 C-27.32323822 204.92247861 -27.32532086 182.84691397 -27.32225883 160.77134514 C-27.32194032 158.41158931 -27.32162595 156.05183347 -27.32131577 153.69207764 C-27.32116149 152.53142308 -27.32100721 151.37076852 -27.32084826 150.17494261 C-27.31998951 142.0465795 -27.32143208 133.91821871 -27.32379532 125.78985596 C-27.32661733 115.86663478 -27.32580484 105.9434215 -27.32051457 96.02020121 C-27.31790971 90.96983055 -27.31681707 85.919473 -27.32016373 80.86910248 C-27.34098398 46.14540953 -27.34098398 46.14540953 -26.80441284 30.34619141 C-26.77405603 29.34807119 -26.74369921 28.34995098 -26.71242249 27.3215847 C-25.94759513 8.74824713 -25.94759513 8.74824713 -19.1875 2.3125 C-13.00399252 -2.06531937 -7.04949889 -3.19247177 0 0 Z " fill="#060606" transform="translate(626.1875,232.6875)"/>
<path d="M0 0 C0.66 0.33 1.32 0.66 2 1 C-9.55 12.55 -21.1 24.1 -33 36 C-33.66 35.67 -34.32 35.34 -35 35 C-25.32959352 24.36941132 -15.61532275 13.69424052 -4.62109375 4.40234375 C-3.00223886 3.00193675 -1.49481669 1.53116482 0 0 Z " fill="#696969" transform="translate(165,123)"/>
<path d="M0 0 C-1.5830577 4.2742558 -4.50568404 6.26531794 -8 9 C-6.68994234 5.06982701 -4.75047804 0 0 0 Z " fill="#636363" transform="translate(484,232)"/>
<path d="M0 0 C0.66 0.33 1.32 0.66 2 1 C-0.64 3.64 -3.28 6.28 -6 9 C-6 6 -6 6 -3.5625 3.375 C-2.716875 2.59125 -1.87125 1.8075 -1 1 C-0.67 0.67 -0.34 0.34 0 0 Z " fill="#6D6D6D" transform="translate(345,232)"/>
<path d="M0 0 C0.66 0.33 1.32 0.66 2 1 C0.02 2.98 -1.96 4.96 -4 7 C-4.66 6.67 -5.32 6.34 -6 6 C-4 4 -2 2 0 0 Z " fill="#6C6C6C" transform="translate(610,233)"/>
</svg>
